<?xml version="1.0" encoding="utf-8"?>
<!-- Generator: Adobe Illustrator 16.0.0, SVG Export Plug-In . SVG Version: 6.00 Build 0)  -->
<!DOCTYPE svg PUBLIC "-//W3C//DTD SVG 1.1//EN" "http://www.w3.org/Graphics/SVG/1.1/DTD/svg11.dtd">
<svg version="1.1" id="Calque_1" xmlns="http://www.w3.org/2000/svg" xmlns:xlink="http://www.w3.org/1999/xlink" x="0px" y="0px"
	 width="128px" height="128px" viewBox="0 0 256 256" style="enable-background:new 0 0 256 256;" xml:space="preserve">
<style type="text/css">
<![CDATA[
	.st0{fill:#104775;}
	.st1{opacity:0.7;fill:none;stroke:#43CEA2;stroke-width:2;stroke-miterlimit:10;}
	.st2{opacity:0.7;fill:none;stroke:#43CEA2;stroke-miterlimit:10;}
	.st3{opacity:0.7;fill:#185A9D;}
	.st4{fill:none;stroke:#444343;stroke-miterlimit:10;}
	.st5{fill:url(#SVGID_7_);stroke:#444343;stroke-miterlimit:10;}
	.st6{fill:url(#SVGID_1_);}
	.st7{fill:url(#SVGID_2_);}
	.st8{fill:url(#SVGID_3_);}
	.st9{fill:url(#SVGID_4_);}
	.st10{fill:url(#SVGID_5_);}
	.st11{fill:url(#SVGID_6_);}
	.st12{opacity:0.2;fill:#020202;}
]]>
</style>
<g>
	<g>
		<path class="st0" d="M206.06,178.5c0,5.973-5.746,10.5-12.833,10.5H94.226c-7.086,0-12.833-4.527-12.833-10.5l0,0
			c0-5.973,5.747-10.5,12.833-10.5h99.001C200.313,168,206.06,172.527,206.06,178.5L206.06,178.5z"/>
		<linearGradient id="SVGID_1_" gradientUnits="userSpaceOnUse" x1="83.8369" y1="178.5" x2="152.2813" y2="178.5">
			<stop  offset="0" style="stop-color:#43CEA2"/>
			<stop  offset="1" style="stop-color:#185A9D"/>
		</linearGradient>
		<path class="st6" d="M152.281,178.5c0,5.973-5.745,10.5-12.833,10.5H96.672c-7.089,0-12.835-4.527-12.835-10.5l0,0
			c0-5.973,5.746-10.5,12.835-10.5h42.776C146.536,168,152.281,172.527,152.281,178.5L152.281,178.5z"/>
		<path class="st0" d="M212.57,135.5c0,5.97-5.745,10.5-12.833,10.5h-79.845c-7.087,0-12.832-4.53-12.832-10.5l0,0
			c0-5.971,5.745-10.5,12.832-10.5h79.845C206.825,125,212.57,129.529,212.57,135.5L212.57,135.5z"/>
		<path class="st0" d="M221.126,91.5c0,6.253-5.745,11.5-12.832,11.5h-79.845c-7.089,0-12.834-5.247-12.834-11.5l0,0
			c0-6.256,5.745-11.5,12.834-11.5h79.845C215.381,80,221.126,85.244,221.126,91.5L221.126,91.5z"/>
		<linearGradient id="SVGID_2_" gradientUnits="userSpaceOnUse" x1="83.8369" y1="91.5" x2="184.0605" y2="91.5">
			<stop  offset="0" style="stop-color:#43CEA2"/>
			<stop  offset="1" style="stop-color:#185A9D"/>
		</linearGradient>
		<path class="st7" d="M184.061,91.5c0,5.973-5.747,11.5-12.835,11.5H96.672c-7.089,0-12.835-5.527-12.835-11.5l0,0
			c0-5.973,5.746-11.5,12.835-11.5h74.554C178.313,80,184.061,85.527,184.061,91.5L184.061,91.5z"/>
		<linearGradient id="SVGID_3_" gradientUnits="userSpaceOnUse" x1="91.1709" y1="114" x2="159.6143" y2="114">
			<stop  offset="0" style="stop-color:#43CEA2"/>
			<stop  offset="1" style="stop-color:#185A9D"/>
		</linearGradient>
		<path class="st8" d="M159.614,114c0,5.97-5.745,11-12.832,11h-42.778c-7.088,0-12.833-5.03-12.833-11l0,0
			c0-5.97,5.745-11,12.833-11h42.778C153.869,103,159.614,108.03,159.614,114L159.614,114z"/>
		<linearGradient id="SVGID_4_" gradientUnits="userSpaceOnUse" x1="88.7256" y1="135.5" x2="157.1709" y2="135.5">
			<stop  offset="0" style="stop-color:#43CEA2"/>
			<stop  offset="1" style="stop-color:#185A9D"/>
		</linearGradient>
		<path class="st9" d="M157.171,135.5c0,5.97-5.747,10.5-12.833,10.5H101.56c-7.087,0-12.834-4.53-12.834-10.5l0,0
			c0-5.971,5.747-10.5,12.834-10.5h42.778C151.424,125,157.171,129.529,157.171,135.5L157.171,135.5z"/>
		<linearGradient id="SVGID_5_" gradientUnits="userSpaceOnUse" x1="83.8369" y1="157" x2="152.2813" y2="157">
			<stop  offset="0" style="stop-color:#43CEA2"/>
			<stop  offset="1" style="stop-color:#185A9D"/>
		</linearGradient>
		<path class="st10" d="M152.281,157c0,5.97-5.745,11-12.833,11H96.672c-7.089,0-12.835-5.03-12.835-11l0,0
			c0-5.973,5.746-11,12.835-11h42.776C146.536,146,152.281,151.027,152.281,157L152.281,157z"/>
		<path class="st0" d="M176.781,114c0-5.97,5.745-11,12.832-11h-61.164c-7.089,0-12.834,5.03-12.834,11s5.745,11,12.834,11h61.164
			C182.526,125,176.781,119.97,176.781,114z"/>
		<path class="st0" d="M158.739,157c0-5.973,5.745-11,12.833-11h-35.791c-7.088,0-12.832,5.027-12.832,11c0,5.97,5.744,11,12.832,11
			h35.791C164.484,168,158.739,162.97,158.739,157z"/>
	</g>
	<linearGradient id="SVGID_6_" gradientUnits="userSpaceOnUse" x1="67.0615" y1="133.8486" x2="111.8768" y2="181.0021">
		<stop  offset="0" style="stop-color:#43CEA2"/>
		<stop  offset="1" style="stop-color:#185A9D"/>
	</linearGradient>
	<path class="st11" d="M57.658,158.294c0,17.65,14.232,31.452,31.884,31.452s31.923-13.547,31.923-31.198L98.477,120H81.632
		L57.658,158.294z"/>
	<path class="st12" d="M101.959,133.314c0,0,19.216,41.916-20.172,55.121c0,0,34.941,6.58,39.678-30.812l-15.444-28.841
		L101.959,133.314z"/>
	<path class="st4" d="M57.658,157.545c0,17.65,14.232,31.826,31.884,31.826s31.923-14.11,31.923-31.761L98.477,118.5H81.632
		L57.658,157.545z"/>
	<linearGradient id="SVGID_7_" gradientUnits="userSpaceOnUse" x1="69.7017" y1="87.3389" x2="108.818" y2="128.496">
		<stop  offset="0" style="stop-color:#43CEA2"/>
		<stop  offset="1" style="stop-color:#185A9D"/>
	</linearGradient>
	<circle class="st5" cx="89.26" cy="107.918" r="28.39"/>
	<circle class="st3" cx="64.975" cy="74.055" r="5.473"/>
	<circle class="st1" cx="49.924" cy="87.737" r="5.473"/>
	<circle class="st2" cx="38.979" cy="80.896" r="4.104"/>
	<polygon class="st2" points="45.593,66.363 48.293,69.188 52.15,68.563 50.299,72.005 52.084,75.482 48.238,74.785 45.482,77.556
		44.959,73.684 41.472,71.92 44.992,70.225 	"/>
</g>
</svg>
