<?xml version="1.0" encoding="utf-8"?>
<!-- Generator: Adobe Illustrator 16.0.0, SVG Export Plug-In . SVG Version: 6.00 Build 0)  -->
<!DOCTYPE svg PUBLIC "-//W3C//DTD SVG 1.1//EN" "http://www.w3.org/Graphics/SVG/1.1/DTD/svg11.dtd">
<svg version="1.1" id="Calque_1" xmlns="http://www.w3.org/2000/svg" xmlns:xlink="http://www.w3.org/1999/xlink" x="0px" y="0px"
	 width="128px" height="128px" viewBox="0 0 256 256" style="enable-background:new 0 0 256 256;" xml:space="preserve">
<style type="text/css">
<![CDATA[
	.st0{opacity:0.7;fill:none;stroke:#FFD194;stroke-width:2;stroke-miterlimit:10;}
	.st1{fill:#AF732C;}
	.st2{fill:none;stroke:#444343;stroke-miterlimit:10;}
	.st3{fill:url(#SVGID_6_);stroke:#444343;stroke-miterlimit:10;}
	.st4{fill:url(#SVGID_7_);stroke:#444343;stroke-miterlimit:10;}
	.st5{fill:url(#SVGID_8_);stroke:#444343;stroke-miterlimit:10;}
	.st6{fill:url(#SVGID_1_);}
	.st7{fill:url(#SVGID_2_);}
	.st8{fill:url(#SVGID_3_);}
	.st9{fill:url(#SVGID_4_);}
	.st10{fill:url(#SVGID_5_);}
	.st11{opacity:0.7;fill:none;stroke:#FFD194;stroke-miterlimit:10;}
	.st12{opacity:0.2;}
	.st13{opacity:0.7;fill:#D1913C;}
]]>
</style>
<g>
	<g>
		<path class="st1" d="M226.591,160.5c0,3.875-3.729,7.5-8.328,7.5h-64.237c-4.599,0-8.327-3.625-8.327-7.5l0,0
			c0-3.875,3.729-7.5,8.327-7.5h64.237C222.861,153,226.591,156.625,226.591,160.5L226.591,160.5z"/>
		<linearGradient id="SVGID_1_" gradientUnits="userSpaceOnUse" x1="147.2842" y1="160.5" x2="191.6953" y2="160.5">
			<stop  offset="0" style="stop-color:#FFD194"/>
			<stop  offset="1" style="stop-color:#D1913C"/>
		</linearGradient>
		<path class="st6" d="M191.695,160.5c0,3.875-3.729,7.5-8.327,7.5h-27.756c-4.6,0-8.328-3.625-8.328-7.5l0,0
			c0-3.875,3.729-7.5,8.328-7.5h27.756C187.967,153,191.695,156.625,191.695,160.5L191.695,160.5z"/>
		<path class="st1" d="M230.815,132c0,3.875-3.728,7-8.327,7H170.68c-4.599,0-8.326-3.125-8.326-7l0,0c0-3.875,3.728-7,8.326-7
			h51.809C227.088,125,230.815,128.125,230.815,132L230.815,132z"/>
		<path class="st1" d="M236.366,104c0,4.056-3.728,8-8.326,8h-51.809c-4.6,0-8.328-3.943-8.328-8l0,0c0-4.06,3.729-8,8.328-8h51.809
			C232.639,96,236.366,99.941,236.366,104L236.366,104z"/>
		<linearGradient id="SVGID_2_" gradientUnits="userSpaceOnUse" x1="147.2842" y1="104" x2="212.3164" y2="104">
			<stop  offset="0" style="stop-color:#FFD194"/>
			<stop  offset="1" style="stop-color:#D1913C"/>
		</linearGradient>
		<path class="st7" d="M212.316,104c0,3.875-3.729,8-8.329,8h-48.375c-4.6,0-8.328-4.125-8.328-8l0,0c0-3.875,3.729-8,8.328-8
			h48.375C208.587,96,212.316,100.125,212.316,104L212.316,104z"/>
		<linearGradient id="SVGID_3_" gradientUnits="userSpaceOnUse" x1="152.043" y1="118.5" x2="196.4531" y2="118.5">
			<stop  offset="0" style="stop-color:#FFD194"/>
			<stop  offset="1" style="stop-color:#D1913C"/>
		</linearGradient>
		<path class="st8" d="M196.453,118.5c0,3.874-3.728,6.5-8.326,6.5H160.37c-4.6,0-8.327-2.626-8.327-6.5l0,0
			c0-3.874,3.728-6.5,8.327-6.5h27.757C192.726,112,196.453,114.626,196.453,118.5L196.453,118.5z"/>
		<linearGradient id="SVGID_4_" gradientUnits="userSpaceOnUse" x1="150.4561" y1="132" x2="194.8682" y2="132">
			<stop  offset="0" style="stop-color:#FFD194"/>
			<stop  offset="1" style="stop-color:#D1913C"/>
		</linearGradient>
		<path class="st9" d="M194.868,132c0,3.875-3.729,7-8.327,7h-27.758c-4.599,0-8.327-3.125-8.327-7l0,0c0-3.875,3.729-7,8.327-7
			h27.758C191.139,125,194.868,128.125,194.868,132L194.868,132z"/>
		<linearGradient id="SVGID_5_" gradientUnits="userSpaceOnUse" x1="147.2842" y1="146" x2="191.6953" y2="146">
			<stop  offset="0" style="stop-color:#FFD194"/>
			<stop  offset="1" style="stop-color:#D1913C"/>
		</linearGradient>
		<path class="st10" d="M191.695,146c0,3.875-3.729,7-8.327,7h-27.756c-4.6,0-8.328-3.125-8.328-7l0,0c0-3.875,3.729-7,8.328-7
			h27.756C187.967,139,191.695,142.125,191.695,146L191.695,146z"/>
		<path class="st1" d="M207.592,118.5c0-3.874,3.729-6.5,8.327-6.5h-39.688c-4.6,0-8.328,2.626-8.328,6.5
			c0,3.874,3.729,6.5,8.328,6.5h39.688C211.32,125,207.592,122.374,207.592,118.5z"/>
		<path class="st1" d="M195.886,146c0-3.875,3.729-7,8.327-7h-23.224c-4.599,0-8.326,3.125-8.326,7s3.728,7,8.326,7h23.224
			C199.614,153,195.886,149.875,195.886,146z"/>
	</g>
	<linearGradient id="SVGID_6_" gradientUnits="userSpaceOnUse" x1="53.4556" y1="84.5791" x2="144.544" y2="180.42">
		<stop  offset="0" style="stop-color:#FFD194"/>
		<stop  offset="1" style="stop-color:#D1913C"/>
	</linearGradient>
	<path class="st3" d="M163.5,157.07c0,6.864-5.565,12.43-12.43,12.43H46.93c-6.865,0-12.43-5.565-12.43-12.43V107.93
		c0-6.865,5.565-12.43,12.43-12.43H151.07c6.864,0,12.43,5.565,12.43,12.43V157.07z"/>
	<path class="st12" d="M162.376,107.927c0,0,1.078,60.077-84.149,61.853l73.255-0.033c0,0,11.527-2.629,11.527-10.619
		L162.376,107.927z"/>
	<path class="st2" d="M163.5,157.07c0,6.864-5.565,12.43-12.43,12.43H46.93c-6.865,0-12.43-5.565-12.43-12.43V107.93
		c0-6.865,5.565-12.43,12.43-12.43H151.07c6.864,0,12.43,5.565,12.43,12.43V157.07z"/>
	<linearGradient id="SVGID_7_" gradientUnits="userSpaceOnUse" x1="66.6953" y1="71.7168" x2="130.4145" y2="138.7605">
		<stop  offset="0" style="stop-color:#FFD194"/>
		<stop  offset="1" style="stop-color:#D1913C"/>
	</linearGradient>
	<path class="st4" d="M34.282,107.782c0-6.865,5.564-12.282,12.429-12.282h103.87c6.864,0,12.429,5.417,12.429,12.282l-64.364,29.52
		L34.282,107.782z"/>
	<linearGradient id="SVGID_8_" gradientUnits="userSpaceOnUse" x1="92.9893" y1="131.2021" x2="104.3024" y2="143.1055">
		<stop  offset="0" style="stop-color:#FFD194"/>
		<stop  offset="1" style="stop-color:#D1913C"/>
	</linearGradient>
	<circle class="st5" cx="98.646" cy="137.154" r="8.211"/>
	<circle class="st13" cx="39.165" cy="91.211" r="3.551"/>
	<circle class="st0" cx="29.399" cy="100.089" r="3.551"/>
	<circle class="st11" cx="22.297" cy="95.65" r="2.663"/>
	<polygon class="st11" points="26.589,86.22 28.34,88.053 30.844,87.648 29.642,89.881 30.8,92.137 28.305,91.685 26.517,93.483
		26.178,90.97 23.915,89.826 26.199,88.726 	"/>
</g>
</svg>
