<?xml version="1.0" encoding="utf-8"?>
<!-- Generator: Adobe Illustrator 16.0.0, SVG Export Plug-In . SVG Version: 6.00 Build 0)  -->
<!DOCTYPE svg PUBLIC "-//W3C//DTD SVG 1.1//EN" "http://www.w3.org/Graphics/SVG/1.1/DTD/svg11.dtd">
<svg version="1.1" id="Calque_1" xmlns="http://www.w3.org/2000/svg" xmlns:xlink="http://www.w3.org/1999/xlink" x="0px" y="0px"
	 width="128px" height="128px" viewBox="0 0 256 256" style="enable-background:new 0 0 256 256;" xml:space="preserve">
<style type="text/css">
<![CDATA[
	.st0{fill:#ECF0F1;stroke:#2B2B2B;stroke-width:2;stroke-miterlimit:10;}
	.st1{fill:#BDC3C7;}
	.st2{fill:url(#SVGID_1_);}
	.st3{fill:url(#SVGID_2_);}
	.st4{fill:url(#SVGID_3_);}
	.st5{fill:url(#SVGID_4_);}
	.st6{fill:url(#SVGID_5_);}
	.st7{fill:url(#SVGID_6_);}
	.st8{fill:url(#SVGID_7_);}
	.st9{fill:url(#SVGID_8_);}
	.st10{fill:url(#SVGID_9_);}
	.st11{fill:#2B2B2B;}
	.st12{opacity:0.3;}
	.st13{fill:#9E102E;}
	.st14{opacity:0.7;fill:none;stroke:#F45C43;stroke-miterlimit:10;}
	.st15{fill:none;stroke:#2B2B2B;stroke-width:2;stroke-miterlimit:10;}
	.st16{opacity:0.7;fill:none;stroke:#F45C43;stroke-width:2;stroke-miterlimit:10;}
]]>
</style>
<g>
	<g>
		<path class="st13" d="M214,188c0,4.887-4.701,9-10.5,9h-81c-5.799,0-10.5-4.113-10.5-9l0,0c0-4.885,4.701-9,10.5-9h81
			C209.299,179,214,183.115,214,188L214,188z"/>
		<linearGradient id="SVGID_1_" gradientUnits="userSpaceOnUse" x1="114" y1="188" x2="170" y2="188">
			<stop  offset="0" style="stop-color:#F45C43"/>
			<stop  offset="1" style="stop-color:#EB3349"/>
		</linearGradient>
		<path class="st2" d="M170,188c0,4.887-4.701,9-10.5,9h-35c-5.799,0-10.5-4.113-10.5-9l0,0c0-4.885,4.701-9,10.5-9h35
			C165.299,179,170,183.115,170,188L170,188z"/>
		<path class="st13" d="M235,152.5c0,4.885-4.701,8.5-10.5,8.5h-81c-5.799,0-10.5-3.615-10.5-8.5l0,0c0-4.885,4.701-8.5,10.5-8.5h81
			C230.299,144,235,147.615,235,152.5L235,152.5z"/>
		<path class="st13" d="M242,117c0,5.117-4.701,9-10.5,9h-81c-5.799,0-10.5-3.883-10.5-9l0,0c0-5.119,4.701-9,10.5-9h81
			C237.299,108,242,111.881,242,117L242,117z"/>
		<path class="st13" d="M206,82c0,4.885-4.701,9-10.5,9h-81c-5.799,0-10.5-4.115-10.5-9l0,0c0-4.886,4.701-9,10.5-9h81
			C201.299,73,206,77.114,206,82L206,82z"/>
		<linearGradient id="SVGID_2_" gradientUnits="userSpaceOnUse" x1="109" y1="82" x2="165" y2="82">
			<stop  offset="0" style="stop-color:#F45C43"/>
			<stop  offset="1" style="stop-color:#EB3349"/>
		</linearGradient>
		<path class="st3" d="M165,82c0,4.886-4.701,9-10.5,9h-35c-5.799,0-10.5-4.114-10.5-9l0,0c0-4.886,4.701-9,10.5-9h35
			C160.299,73,165,77.114,165,82L165,82z"/>
		<linearGradient id="SVGID_3_" gradientUnits="userSpaceOnUse" x1="95" y1="99.5" x2="151" y2="99.5">
			<stop  offset="0" style="stop-color:#F45C43"/>
			<stop  offset="1" style="stop-color:#EB3349"/>
		</linearGradient>
		<path class="st4" d="M151,99.5c0,4.886-4.701,8.5-10.5,8.5h-35c-5.799,0-10.5-3.614-10.5-8.5l0,0c0-4.886,4.701-8.5,10.5-8.5h35
			C146.299,91,151,94.614,151,99.5L151,99.5z"/>
		<path class="st13" d="M173,99.5c0-4.886,4.701-8.5,10.5-8.5h-43c-5.799,0-10.5,3.614-10.5,8.5s4.701,8.5,10.5,8.5h43
			C177.701,108,173,104.386,173,99.5z"/>
		<linearGradient id="SVGID_4_" gradientUnits="userSpaceOnUse" x1="114" y1="117" x2="196" y2="117">
			<stop  offset="0" style="stop-color:#F45C43"/>
			<stop  offset="1" style="stop-color:#EB3349"/>
		</linearGradient>
		<path class="st5" d="M196,117c0,4.886-4.701,9-10.5,9h-61c-5.799,0-10.5-4.114-10.5-9l0,0c0-4.886,4.701-9,10.5-9h61
			C191.299,108,196,112.114,196,117L196,117z"/>
		<linearGradient id="SVGID_5_" gradientUnits="userSpaceOnUse" x1="120" y1="135" x2="176" y2="135">
			<stop  offset="0" style="stop-color:#F45C43"/>
			<stop  offset="1" style="stop-color:#EB3349"/>
		</linearGradient>
		<path class="st6" d="M176,135c0,4.885-4.701,9-10.5,9h-35c-5.799,0-10.5-4.115-10.5-9l0,0c0-4.885,4.701-9,10.5-9h35
			C171.299,126,176,130.115,176,135L176,135z"/>
		<linearGradient id="SVGID_6_" gradientUnits="userSpaceOnUse" x1="118" y1="152.5" x2="174" y2="152.5">
			<stop  offset="0" style="stop-color:#F45C43"/>
			<stop  offset="1" style="stop-color:#EB3349"/>
		</linearGradient>
		<path class="st7" d="M174,152.5c0,4.885-4.701,8.5-10.5,8.5h-35c-5.799,0-10.5-3.615-10.5-8.5l0,0c0-4.885,4.701-8.5,10.5-8.5h35
			C169.299,144,174,147.615,174,152.5L174,152.5z"/>
		<linearGradient id="SVGID_7_" gradientUnits="userSpaceOnUse" x1="114" y1="170" x2="170" y2="170">
			<stop  offset="0" style="stop-color:#F45C43"/>
			<stop  offset="1" style="stop-color:#EB3349"/>
		</linearGradient>
		<path class="st8" d="M170,170c0,4.887-4.701,9-10.5,9h-35c-5.799,0-10.5-4.113-10.5-9l0,0c0-4.885,4.701-9,10.5-9h35
			C165.299,161,170,165.115,170,170L170,170z"/>
		<path class="st13" d="M199,135c0-4.885,4.701-9,10.5-9h-59c-5.799,0-10.5,4.115-10.5,9s4.701,9,10.5,9h59
			C203.701,144,199,139.885,199,135z"/>
		<path class="st13" d="M182,170c0-4.885,4.701-9,10.5-9h-36c-5.799,0-10.5,4.115-10.5,9c0,4.887,4.701,9,10.5,9h36
			C186.701,179,182,174.887,182,170z"/>
	</g>
	<g>
		<path class="st0" d="M129,92V78.311c0-2.209-1.791-4.311-4-4.311H43c-2.209,0-4,2.102-4,4.311v114c0,2.209,1.791,3.689,4,3.689h82
			c2.209,0,4-1.48,4-3.689V107"/>
		<path class="st11" d="M130,110.042c0,0.529-0.429,0.958-0.958,0.958h-0.084c-0.529,0-0.958-0.429-0.958-0.958v-3.084
			c0-0.529,0.429-0.958,0.958-0.958h0.084c0.529,0,0.958,0.429,0.958,0.958V110.042z"/>
		<path class="st11" d="M130,93.042c0,0.529-0.429,0.958-0.958,0.958h-0.084c-0.529,0-0.958-0.429-0.958-0.958v-3.084
			c0-0.529,0.429-0.958,0.958-0.958h0.084c0.529,0,0.958,0.429,0.958,0.958V93.042z"/>
	</g>
	<linearGradient id="SVGID_8_" gradientUnits="userSpaceOnUse" x1="39" y1="90" x2="129" y2="90">
		<stop  offset="0" style="stop-color:#5691C8"/>
		<stop  offset="1" style="stop-color:#2C68B4"/>
	</linearGradient>
	<rect x="39" y="75" class="st9" width="90" height="30"/>
	<linearGradient id="SVGID_9_" gradientUnits="userSpaceOnUse" x1="72.5" y1="106.061" x2="96" y2="106.061">
		<stop  offset="0" style="stop-color:#F45C43"/>
		<stop  offset="1" style="stop-color:#EB3349"/>
	</linearGradient>
	<circle class="st10" cx="84.25" cy="106.061" r="11.75"/>
	<rect x="72" y="129" class="st1" width="51" height="10"/>
	<rect x="72" y="141" class="st1" width="43" height="3"/>
	<rect x="72" y="146" class="st1" width="43" height="3"/>
	<rect x="72" y="163" class="st1" width="51" height="10"/>
	<rect x="72" y="175" class="st1" width="43" height="3"/>
	<rect x="72" y="180" class="st1" width="43" height="3"/>
	<circle class="st1" cx="60" cy="135.811" r="6.5"/>
	<circle class="st1" cx="60" cy="168.811" r="6.5"/>
	<path class="st12" d="M40.36,75.156C40.36,75.156,39,176,64,196H43c0,0-4,4.311-4-4.689v-113C39,78.311,38.221,77.156,40.36,75.156
		z"/>
	<g>
		<path class="st15" d="M129,92V78.311c0-2.209-1.791-4.311-4-4.311H43c-2.209,0-4,2.102-4,4.311v114c0,2.209,1.791,3.689,4,3.689
			h82c2.209,0,4-1.48,4-3.689V107"/>
		<path class="st11" d="M130,110.042c0,0.529-0.429,0.958-0.958,0.958h-0.084c-0.529,0-0.958-0.429-0.958-0.958v-3.084
			c0-0.529,0.429-0.958,0.958-0.958h0.084c0.529,0,0.958,0.429,0.958,0.958V110.042z"/>
		<path class="st11" d="M130,93.042c0,0.529-0.429,0.958-0.958,0.958h-0.084c-0.529,0-0.958-0.429-0.958-0.958v-3.084
			c0-0.529,0.429-0.958,0.958-0.958h0.084c0.529,0,0.958,0.429,0.958,0.958V93.042z"/>
	</g>
	<circle class="st13" cx="36" cy="64.311" r="4"/>
	<circle class="st16" cx="25" cy="74.311" r="4"/>
	<circle class="st14" cx="17" cy="69.311" r="3"/>
	<polygon class="st14" points="21.833,58.689 23.808,60.753 26.627,60.298 25.274,62.813 26.578,65.354 23.768,64.844 21.754,66.87
		21.371,64.04 18.822,62.75 21.396,61.511 	"/>
</g>
</svg>
