<?xml version="1.0" encoding="utf-8"?>
<!-- Generator: Adobe Illustrator 16.0.0, SVG Export Plug-In . SVG Version: 6.00 Build 0)  -->
<!DOCTYPE svg PUBLIC "-//W3C//DTD SVG 1.1//EN" "http://www.w3.org/Graphics/SVG/1.1/DTD/svg11.dtd">
<svg version="1.1" id="Calque_1" xmlns="http://www.w3.org/2000/svg" xmlns:xlink="http://www.w3.org/1999/xlink" x="0px" y="0px"
	 width="60px" height="40px" viewBox="0 0 60 40" style="enable-background:new 0 0 60 40;" xml:space="preserve">
<style type="text/css">
<![CDATA[
	.st0{fill:url(#SVGID_1_);}
	.st1{fill:url(#SVGID_2_);}
]]>
</style>
<g>
	<linearGradient id="SVGID_1_" gradientUnits="userSpaceOnUse" x1="20.3906" y1="-2.2061" x2="61.5381" y2="41.0883">
		<stop  offset="0" style="stop-color:#24C6DC"/>
		<stop  offset="0.5426" style="stop-color:#514A9D"/>
	</linearGradient>
	<path class="st0" d="M58,30c0,2.762-2.238,5-5,5h-4c-2.762,0-5-2.238-5-5l0,0c0-2.762,2.238-5,5-5h4C55.762,25,58,27.238,58,30
		L58,30z"/>
	<linearGradient id="SVGID_2_" gradientUnits="userSpaceOnUse" x1="16.438" y1="5.8765" x2="54.0578" y2="45.4591">
		<stop  offset="0" style="stop-color:#24C6DC"/>
		<stop  offset="0.5426" style="stop-color:#514A9D"/>
	</linearGradient>
	<path class="st1" d="M37.611,25h-2.588C32.522,25,30,22.826,30,20.324v-0.647C30,17.175,32.522,15,35.023,15h4.529h13.588
		C55.643,15,57,13.119,57,10.618V9.971C57,7.469,55.643,5,53.141,5H22.73C20.229,5,18,7.469,18,9.971v0.647
		c0,2.501,1.998,4.529,4.5,4.529c2.501,0,4.5,2.028,4.5,4.529v0.647C27,22.826,25.231,25,22.73,25H9.142H7.2
		C4.699,25,2,26.88,2,29.383v0.646C2,32.531,4.699,35,7.2,35h30.411C40.114,35,42,32.531,42,30.029v-0.646
		C42,26.88,40.114,25,37.611,25z"/>
</g>
</svg>
