<?xml version="1.0" encoding="utf-8"?>
<!-- Generator: Adobe Illustrator 16.0.0, SVG Export Plug-In . SVG Version: 6.00 Build 0)  -->
<!DOCTYPE svg PUBLIC "-//W3C//DTD SVG 1.1//EN" "http://www.w3.org/Graphics/SVG/1.1/DTD/svg11.dtd">
<svg version="1.1" id="Calque_1" xmlns="http://www.w3.org/2000/svg" xmlns:xlink="http://www.w3.org/1999/xlink" x="0px" y="0px"
	 width="128px" height="128px" viewBox="0 0 128 128" style="enable-background:new 0 0 128 128;" xml:space="preserve">
<style type="text/css">
<![CDATA[
	.st0{fill:#E5E5E5;}
	.st1{fill:#262626;}
	.st2{opacity:0.2;}
	.st3{fill:#DDDDDD;}
]]>
</style>
<g>
	<path class="st3" d="M117,32v-4c0-2.209-1.791-4-4-4H12c-2.209,0-4,1.791-4,4v4H117z"/>
	<path class="st3" d="M8,95v4c0,2.209,1.791,4,4,4h101c2.209,0,4-1.791,4-4v-4H8z"/>
	<rect x="8" y="32" class="st1" width="109" height="67"/>
	<g>
		<path class="st0" d="M24.125,50.884l-3.621-1.33v-1.4l5.063,2.18v1.131l-5.063,2.18v-1.4L24.125,50.884z"/>
		<path class="st0" d="M31.391,55.73h-5.373v-1.119h5.373V55.73z"/>
		<path class="st0" d="M38.791,51.833c-0.039,0.418-0.137,0.804-0.293,1.157s-0.373,0.659-0.65,0.917s-0.616,0.459-1.017,0.604
			s-0.862,0.217-1.386,0.217s-0.997-0.095-1.421-0.284s-0.785-0.459-1.084-0.809s-0.528-0.772-0.688-1.269s-0.24-1.053-0.24-1.67
			v-0.691c0-0.613,0.082-1.169,0.246-1.667s0.398-0.923,0.703-1.274s0.673-0.623,1.104-0.814s0.915-0.287,1.45-0.287
			c0.508,0,0.957,0.073,1.348,0.22s0.722,0.35,0.993,0.609s0.484,0.569,0.639,0.929s0.253,0.752,0.296,1.178h-1.477
			c-0.031-0.27-0.085-0.512-0.161-0.727s-0.185-0.397-0.325-0.548s-0.318-0.265-0.533-0.343s-0.475-0.117-0.779-0.117
			c-0.336,0-0.63,0.063-0.882,0.19s-0.462,0.311-0.63,0.551s-0.294,0.536-0.378,0.888S33.5,49.544,33.5,49.994v0.703
			c0,0.426,0.037,0.813,0.111,1.16s0.189,0.646,0.346,0.894s0.357,0.44,0.604,0.577s0.541,0.205,0.885,0.205
			c0.32,0,0.591-0.037,0.812-0.111s0.403-0.184,0.548-0.328s0.257-0.322,0.337-0.533s0.138-0.453,0.173-0.727H38.791z"/>
		<path class="st0" d="M46.109,47.275h-2.66v7.336h-1.471v-7.336h-2.637V46.08h6.768V47.275z"/>
		<path class="st0" d="M50.363,51.324h-1.652v3.287h-1.482V46.08h3c0.488,0,0.924,0.056,1.307,0.167s0.706,0.275,0.97,0.492
			s0.464,0.485,0.601,0.806s0.205,0.691,0.205,1.113c0,0.57-0.138,1.048-0.413,1.433s-0.659,0.681-1.151,0.888l1.916,3.557v0.076
			h-1.588L50.363,51.324z M48.711,50.134h1.523c0.266,0,0.498-0.035,0.697-0.105s0.365-0.168,0.498-0.293s0.232-0.273,0.299-0.445
			s0.1-0.361,0.1-0.568c0-0.219-0.031-0.417-0.094-0.595s-0.158-0.33-0.287-0.457s-0.294-0.225-0.495-0.293
			s-0.442-0.103-0.724-0.103h-1.518V50.134z"/>
		<path class="st0" d="M56.199,53.427h3.873v1.184h-5.355V46.08h1.482V53.427z"/>
		<path class="st0" d="M67.35,49.917h2.227v1.301H67.35v2.537h-1.383v-2.537h-2.238v-1.301h2.238v-2.373h1.383V49.917z"/>
		<path class="st0" d="M80.381,51.833c-0.039,0.418-0.137,0.804-0.293,1.157s-0.373,0.659-0.65,0.917s-0.616,0.459-1.017,0.604
			s-0.862,0.217-1.386,0.217s-0.997-0.095-1.421-0.284s-0.785-0.459-1.084-0.809s-0.528-0.772-0.688-1.269s-0.24-1.053-0.24-1.67
			v-0.691c0-0.613,0.082-1.169,0.246-1.667s0.398-0.923,0.703-1.274s0.673-0.623,1.104-0.814s0.915-0.287,1.45-0.287
			c0.508,0,0.957,0.073,1.348,0.22s0.722,0.35,0.993,0.609s0.484,0.569,0.639,0.929s0.253,0.752,0.296,1.178h-1.477
			c-0.031-0.27-0.085-0.512-0.161-0.727s-0.185-0.397-0.325-0.548s-0.318-0.265-0.533-0.343s-0.475-0.117-0.779-0.117
			c-0.336,0-0.63,0.063-0.882,0.19s-0.462,0.311-0.63,0.551s-0.294,0.536-0.378,0.888s-0.126,0.752-0.126,1.201v0.703
			c0,0.426,0.037,0.813,0.111,1.16s0.189,0.646,0.346,0.894s0.357,0.44,0.604,0.577s0.541,0.205,0.885,0.205
			c0.32,0,0.591-0.037,0.812-0.111s0.403-0.184,0.548-0.328s0.257-0.322,0.337-0.533s0.138-0.453,0.173-0.727H80.381z"/>
	</g>
	<g>
		<path class="st0" d="M24.125,79.395l-3.621-1.33v-1.4l5.063,2.18v1.131l-5.063,2.18v-1.4L24.125,79.395z"/>
		<path class="st0" d="M31.391,84.24h-5.373v-1.119h5.373V84.24z"/>
		<path class="st0" d="M38.791,80.344c-0.039,0.418-0.137,0.803-0.293,1.156s-0.373,0.66-0.65,0.918s-0.616,0.459-1.017,0.604
			s-0.862,0.217-1.386,0.217s-0.997-0.096-1.421-0.285s-0.785-0.459-1.084-0.809s-0.528-0.771-0.688-1.268s-0.24-1.053-0.24-1.67
			v-0.691c0-0.613,0.082-1.17,0.246-1.668s0.398-0.922,0.703-1.273s0.673-0.623,1.104-0.814s0.915-0.287,1.45-0.287
			c0.508,0,0.957,0.072,1.348,0.219s0.722,0.35,0.993,0.609s0.484,0.57,0.639,0.93s0.253,0.752,0.296,1.178h-1.477
			c-0.031-0.27-0.085-0.512-0.161-0.727s-0.185-0.398-0.325-0.549s-0.318-0.264-0.533-0.342s-0.475-0.117-0.779-0.117
			c-0.336,0-0.63,0.063-0.882,0.189s-0.462,0.311-0.63,0.551s-0.294,0.537-0.378,0.889S33.5,78.055,33.5,78.504v0.703
			c0,0.426,0.037,0.813,0.111,1.16s0.189,0.645,0.346,0.893s0.357,0.441,0.604,0.578s0.541,0.205,0.885,0.205
			c0.32,0,0.591-0.037,0.812-0.111s0.403-0.184,0.548-0.328s0.257-0.322,0.337-0.533s0.138-0.453,0.173-0.727H38.791z"/>
		<path class="st0" d="M46.109,75.785h-2.66v7.336h-1.471v-7.336h-2.637V74.59h6.768V75.785z"/>
		<path class="st0" d="M50.363,79.834h-1.652v3.287h-1.482V74.59h3c0.488,0,0.924,0.055,1.307,0.166s0.706,0.275,0.97,0.492
			s0.464,0.486,0.601,0.807s0.205,0.691,0.205,1.113c0,0.57-0.138,1.047-0.413,1.432s-0.659,0.682-1.151,0.889l1.916,3.557v0.076
			h-1.588L50.363,79.834z M48.711,78.645h1.523c0.266,0,0.498-0.035,0.697-0.105s0.365-0.168,0.498-0.293s0.232-0.273,0.299-0.445
			s0.1-0.361,0.1-0.568c0-0.219-0.031-0.418-0.094-0.596s-0.158-0.33-0.287-0.457s-0.294-0.225-0.495-0.293
			s-0.442-0.102-0.724-0.102h-1.518V78.645z"/>
		<path class="st0" d="M56.199,81.938h3.873v1.184h-5.355V74.59h1.482V81.938z"/>
		<path class="st0" d="M67.35,78.428h2.227v1.301H67.35v2.537h-1.383v-2.537h-2.238v-1.301h2.238v-2.373h1.383V78.428z"/>
		<path class="st0" d="M76.877,81.264l2.168-6.674h1.629l-3.07,8.531h-1.436l-3.059-8.531h1.623L76.877,81.264z"/>
	</g>
	<path class="st2" d="M117,32c0,0,2.677,70.619-74.274,71H113c0,0,4,0,4-4V32z"/>
</g>
</svg>
