<?xml version="1.0" encoding="utf-8"?>
<!-- Generator: Adobe Illustrator 16.0.0, SVG Export Plug-In . SVG Version: 6.00 Build 0)  -->
<!DOCTYPE svg PUBLIC "-//W3C//DTD SVG 1.1//EN" "http://www.w3.org/Graphics/SVG/1.1/DTD/svg11.dtd">
<svg version="1.1" id="Calque_1" xmlns="http://www.w3.org/2000/svg" xmlns:xlink="http://www.w3.org/1999/xlink" x="0px" y="0px"
	 width="128px" height="128px" viewBox="0 0 128 128" style="enable-background:new 0 0 128 128;" xml:space="preserve">
<style type="text/css">
<![CDATA[
	.st0{fill:#E5E5E5;}
	.st1{fill:url(#SVGID_1_);}
	.st2{fill:url(#SVGID_2_);}
	.st3{fill:url(#SVGID_3_);}
	.st4{opacity:0.2;}
]]>
</style>
<g>
	<linearGradient id="SVGID_1_" gradientUnits="userSpaceOnUse" x1="8" y1="28" x2="117" y2="28">
		<stop  offset="0" style="stop-color:#24C6DC"/>
		<stop  offset="0.5426" style="stop-color:#514A9D"/>
	</linearGradient>
	<path class="st1" d="M117,32v-4c0-2.209-1.791-4-4-4H12c-2.209,0-4,1.791-4,4v4H117z"/>
	<linearGradient id="SVGID_2_" gradientUnits="userSpaceOnUse" x1="8" y1="99" x2="117" y2="99">
		<stop  offset="0" style="stop-color:#24C6DC"/>
		<stop  offset="0.5426" style="stop-color:#514A9D"/>
	</linearGradient>
	<path class="st2" d="M8,95v4c0,2.209,1.791,4,4,4h101c2.209,0,4-1.791,4-4v-4H8z"/>
</g>
<linearGradient id="SVGID_3_" gradientUnits="userSpaceOnUse" x1="19.9067" y1="20.6846" x2="105.0936" y2="110.3161">
	<stop  offset="0" style="stop-color:#434343"/>
	<stop  offset="0.5426" style="stop-color:#000000"/>
</linearGradient>
<rect x="8" y="32" class="st3" width="109" height="67"/>
<path class="st4" d="M117,32c0,0,2.677,70.619-74.274,71H113c0,0,4,0,4-4V32z"/>
<g>
	<path class="st0" d="M42.508,63.695l-3.621-1.33v-1.4l5.063,2.18v1.131l-5.063,2.18v-1.4L42.508,63.695z"/>
	<path class="st0" d="M49.773,68.541H44.4v-1.119h5.373V68.541z"/>
	<path class="st0" d="M52.146,64.252v3.17h-1.482v-8.531h3.264c0.496,0,0.937,0.067,1.321,0.202s0.71,0.323,0.976,0.565
		s0.468,0.529,0.606,0.861s0.208,0.693,0.208,1.084c0,0.414-0.069,0.785-0.208,1.113s-0.341,0.605-0.606,0.832
		s-0.591,0.4-0.976,0.521s-0.825,0.182-1.321,0.182H52.146z M52.146,63.063h1.781c0.285,0,0.53-0.035,0.735-0.105
		s0.374-0.17,0.507-0.299s0.229-0.282,0.29-0.46s0.091-0.372,0.091-0.583c0-0.199-0.03-0.391-0.091-0.574s-0.157-0.347-0.29-0.489
		s-0.302-0.256-0.507-0.34s-0.45-0.126-0.735-0.126h-1.781V63.063z"/>
	<path class="st0" d="M61.516,62.383c-0.094-0.016-0.188-0.027-0.284-0.035s-0.194-0.012-0.296-0.012
		c-0.344,0-0.623,0.066-0.838,0.199s-0.375,0.316-0.48,0.551v4.336h-1.424v-6.34h1.359l0.035,0.709
		c0.16-0.258,0.358-0.46,0.595-0.606s0.515-0.22,0.835-0.22c0.082,0,0.175,0.009,0.278,0.026s0.179,0.036,0.226,0.056L61.516,62.383
		z"/>
	<path class="st0" d="M62.418,59.436c0-0.219,0.069-0.4,0.208-0.545s0.337-0.217,0.595-0.217s0.457,0.072,0.598,0.217
		s0.211,0.326,0.211,0.545c0,0.215-0.07,0.394-0.211,0.536s-0.34,0.214-0.598,0.214s-0.456-0.071-0.595-0.214
		S62.418,59.65,62.418,59.436z M63.93,67.422h-1.424v-6.34h1.424V67.422z"/>
	<path class="st0" d="M66.801,61.082l0.041,0.732c0.223-0.27,0.49-0.479,0.803-0.627s0.66-0.223,1.043-0.223
		c0.305,0,0.581,0.042,0.829,0.126s0.46,0.22,0.636,0.407s0.312,0.432,0.407,0.732s0.144,0.666,0.144,1.096v4.096h-1.424v-4.107
		c0-0.219-0.024-0.403-0.073-0.554s-0.12-0.272-0.214-0.366s-0.21-0.161-0.349-0.202s-0.298-0.062-0.478-0.062
		c-0.293,0-0.548,0.07-0.765,0.211s-0.39,0.33-0.519,0.568v4.512h-1.424v-6.34H66.801z"/>
	<path class="st0" d="M73.938,59.541v1.541h1.119v1.055h-1.119v3.539c0,0.145,0.016,0.262,0.047,0.352s0.076,0.159,0.135,0.208
		s0.128,0.082,0.208,0.1s0.169,0.026,0.267,0.026s0.192-0.007,0.284-0.021s0.163-0.026,0.214-0.038v1.102
		c-0.113,0.031-0.245,0.062-0.396,0.091s-0.331,0.044-0.542,0.044c-0.234,0-0.452-0.031-0.653-0.094s-0.375-0.164-0.521-0.305
		s-0.261-0.324-0.343-0.551s-0.123-0.504-0.123-0.832v-3.621h-1.043v-1.055h1.043v-1.541H73.938z"/>
	<path class="st0" d="M79.152,63.953c0-0.563,0.044-1.091,0.132-1.585s0.207-0.95,0.357-1.368s0.323-0.798,0.519-1.14
		s0.401-0.644,0.618-0.905s0.437-0.484,0.659-0.668s0.434-0.324,0.633-0.422l0.281,0.832c-0.223,0.168-0.446,0.398-0.671,0.691
		s-0.429,0.654-0.612,1.084s-0.333,0.932-0.448,1.506s-0.173,1.229-0.173,1.963v0.117c0,0.734,0.058,1.389,0.173,1.963
		s0.265,1.078,0.448,1.512s0.388,0.799,0.612,1.096s0.448,0.535,0.671,0.715l-0.281,0.791c-0.199-0.098-0.41-0.238-0.633-0.422
		s-0.442-0.407-0.659-0.671s-0.423-0.565-0.618-0.905S79.792,67.418,79.642,67s-0.27-0.873-0.357-1.365s-0.132-1.021-0.132-1.588
		V63.953z"/>
	<path class="st0" d="M86.061,64.047c0,0.555-0.045,1.077-0.135,1.567s-0.21,0.944-0.36,1.362s-0.326,0.799-0.527,1.143
		s-0.411,0.648-0.63,0.914s-0.44,0.491-0.665,0.677s-0.438,0.327-0.642,0.425l-0.281-0.791c0.219-0.168,0.441-0.4,0.668-0.697
		s0.432-0.663,0.615-1.099s0.333-0.942,0.448-1.521s0.173-1.234,0.173-1.969v-0.117c0-0.734-0.061-1.392-0.182-1.972
		s-0.275-1.087-0.463-1.521s-0.394-0.799-0.618-1.096s-0.438-0.527-0.642-0.691l0.281-0.797c0.203,0.098,0.417,0.239,0.642,0.425
		s0.446,0.411,0.665,0.677s0.429,0.571,0.63,0.917s0.377,0.728,0.527,1.146s0.271,0.871,0.36,1.359s0.135,1.01,0.135,1.564V64.047z"
		/>
	<path class="st0" d="M88.961,67.059c0,0.195-0.025,0.398-0.076,0.609s-0.125,0.417-0.223,0.618s-0.215,0.393-0.352,0.574
		s-0.289,0.343-0.457,0.483l-0.768-0.457c0.082-0.129,0.16-0.261,0.234-0.396s0.138-0.273,0.19-0.416s0.095-0.294,0.126-0.454
		s0.047-0.332,0.047-0.516v-1.061h1.283L88.961,67.059z M87.455,61.738c0-0.227,0.072-0.415,0.217-0.565s0.348-0.226,0.609-0.226
		c0.266,0,0.471,0.075,0.615,0.226s0.217,0.339,0.217,0.565c0,0.223-0.072,0.407-0.217,0.554s-0.35,0.22-0.615,0.22
		c-0.129,0-0.245-0.02-0.349-0.059s-0.19-0.094-0.261-0.164s-0.124-0.152-0.161-0.246S87.455,61.848,87.455,61.738z"/>
</g>
</svg>
