<?xml version="1.0" encoding="utf-8"?>
<!-- Generator: Adobe Illustrator 16.0.0, SVG Export Plug-In . SVG Version: 6.00 Build 0)  -->
<!DOCTYPE svg PUBLIC "-//W3C//DTD SVG 1.1//EN" "http://www.w3.org/Graphics/SVG/1.1/DTD/svg11.dtd">
<svg version="1.1" id="Calque_1" xmlns="http://www.w3.org/2000/svg" xmlns:xlink="http://www.w3.org/1999/xlink" x="0px" y="0px"
	 width="128px" height="128px" viewBox="0 0 128 128" style="enable-background:new 0 0 128 128;" xml:space="preserve">
<style type="text/css">
<![CDATA[
	.st0{fill:url(#SVGID_1_);}
	.st1{fill:url(#SVGID_2_);}
]]>
</style>
<g>
	<linearGradient id="SVGID_1_" gradientUnits="userSpaceOnUse" x1="49.2817" y1="25.9272" x2="122.8381" y2="103.3214">
		<stop  offset="0" style="stop-color:#24C6DC"/>
		<stop  offset="0.5426" style="stop-color:#514A9D"/>
	</linearGradient>
	<path class="st0" d="M116,83.934c0,5.007-4.059,9.066-9.065,9.066h-5.869C96.059,93,92,88.94,92,83.934v-0.867
		C92,78.06,96.059,74,101.065,74h5.869c5.007,0,9.065,4.06,9.065,9.066V83.934z"/>
	<linearGradient id="SVGID_2_" gradientUnits="userSpaceOnUse" x1="37.2349" y1="35.8384" x2="111.619" y2="114.1035">
		<stop  offset="0" style="stop-color:#24C6DC"/>
		<stop  offset="0.5426" style="stop-color:#514A9D"/>
	</linearGradient>
	<path class="st1" d="M78.894,74h-5.18C68.706,74,65,69.655,65,64.647v-1.295C65,58.345,68.706,54,73.714,54h9.065h27.198
		c5.007,0,9.022-3.772,9.022-8.779v-1.295c0-5.007-4.016-8.925-9.022-8.925H49.106C44.099,35,40,38.918,40,43.925v1.295
		c0,5.007,3.993,9.066,9,9.066s9,4.059,9,9.066v1.295C58,69.655,54.113,74,49.106,74H21.908h-3.885C13.016,74,9,77.772,9,82.779
		v1.295C9,89.082,13.016,93,18.023,93h60.871C83.901,93,88,89.082,88,84.074v-1.295C88,77.772,83.901,74,78.894,74z"/>
</g>
</svg>
