<?xml version="1.0" encoding="utf-8"?>
<!-- Generator: Adobe Illustrator 16.0.0, SVG Export Plug-In . SVG Version: 6.00 Build 0)  -->
<!DOCTYPE svg PUBLIC "-//W3C//DTD SVG 1.1//EN" "http://www.w3.org/Graphics/SVG/1.1/DTD/svg11.dtd">
<svg version="1.1" id="Calque_1" xmlns="http://www.w3.org/2000/svg" xmlns:xlink="http://www.w3.org/1999/xlink" x="0px" y="0px"
	 width="128px" height="128px" viewBox="0 0 128 128" style="enable-background:new 0 0 128 128;" xml:space="preserve">
<style type="text/css">
<![CDATA[
	.st0{fill-rule:evenodd;clip-rule:evenodd;fill:#3A3A3A;}
	.st1{fill-rule:evenodd;clip-rule:evenodd;fill:#F1F1F0;}
	.st2{fill-rule:evenodd;clip-rule:evenodd;fill:#F6F6F6;}
	.st3{fill-rule:evenodd;clip-rule:evenodd;fill:#FDFDFD;}
	.st4{fill-rule:evenodd;clip-rule:evenodd;fill:#FEFEFE;}
]]>
</style>
<g>
	<g>
		<path class="st4" d="M11.882,69.272c0-4.283,0.01-8.566-0.013-12.849c-0.003-0.486,0.131-0.568,0.583-0.568
			c6.237,0.016,12.474,0.011,18.71,0.011c-0.023,0.401-0.407,0.377-0.635,0.53c-0.722,0.479-1.43,0.966-1.428,1.964
			c0.001,0.645,0.268,0.903,0.916,0.927c1.057,0.038,2.263-0.854,2.546-1.886c0.106-0.385,0.081-0.739-0.218-1.047
			c-0.13-0.134-0.342-0.236-0.277-0.488c16.57,0,33.139,0,49.707,0c-0.023,0.401-0.407,0.377-0.636,0.53
			c-0.722,0.479-1.429,0.966-1.428,1.964c0.002,0.645,0.268,0.903,0.917,0.927c1.058,0.038,2.263-0.854,2.546-1.886
			c0.106-0.385,0.08-0.739-0.219-1.047c-0.131-0.134-0.343-0.236-0.276-0.488c11.045,0,22.092,0.005,33.139-0.015
			c0.516,0,0.623,0.101,0.617,0.618c-0.032,2.861-0.016,5.724-0.016,8.585c-0.867,1.075-1.962,1.855-3.219,2.4
			c-0.491,0.212-0.663,0.063-0.563-0.48c0.206-1.11,0.418-2.219,0.671-3.319c0.126-0.547,0.574-0.869,0.883-1.29
			c0.229-0.314,0.625-0.647,0.402-1.06c-0.246-0.454-0.765-0.286-1.17-0.237c-0.582,0.07-1.176,0.259-1.504,0.762
			c-0.802,1.228-1.96,2.071-3.055,2.983c-1.388,1.156-2.775,2.313-4.177,3.451c-0.137,0.11-0.267,0.229-0.421,0.316
			c-0.156,0.085-0.336,0.184-0.494,0.068c-0.184-0.133-0.161-0.352-0.111-0.554c0.041-0.172,0.119-0.33,0.199-0.486
			c0.73-1.459,1.549-2.87,2.304-4.313c0.276-0.526,0.728-0.535,1.216-0.548c0.397-0.011,0.858,0.129,1.146-0.336
			c-0.276-0.287-0.596-0.148-0.878-0.183c-0.612-0.074-0.72-0.21-0.473-0.771c0.335-0.757,0.729-1.485,1.148-2.201
			c0.508-0.871,0.457-0.885-0.512-0.956c-0.867-0.064-1.406,0.222-1.777,1.024c-0.336,0.725-0.757,1.415-1.139,2.121
			c-0.298,0.552-0.677,0.848-1.311,0.788c-0.125-0.012-0.252-0.008-0.376,0.002c-0.268,0.021-0.667-0.022-0.648,0.328
			c0.016,0.318,0.407,0.151,0.633,0.188c0.266,0.043,0.61-0.046,0.728,0.265c0.104,0.277-0.106,0.534-0.278,0.744
			c-0.924,1.128-1.989,2.123-3.058,3.108c-0.405,0.373-0.824,0.73-1.217,1.119c-0.196,0.194-0.392,0.392-0.642,0.517
			c-0.207,0.106-0.439,0.198-0.634,0.026c-0.175-0.155-0.086-0.379-0.023-0.566c0.157-0.451,0.378-0.876,0.626-1.281
			c0.474-0.773,0.843-1.599,1.248-2.405c0.091-0.18,0.161-0.368,0.215-0.562c0.407-1.454-0.326-2.206-1.791-1.85
			c-1.031,0.251-1.882,0.821-2.652,1.514c-0.557,0.502-1.194,0.922-1.648,1.536c-0.091,0.122-0.223,0.203-0.385,0.21
			c-0.125-0.017-0.206-0.086-0.254-0.201c-0.079-0.354,0.107-0.635,0.273-0.912c0.271-0.453,0.513-0.92,0.749-1.392
			c0.421-0.842,0.418-0.783-0.558-0.86c-0.905-0.072-1.404,0.245-1.792,1.081c-0.582,1.247-1.176,2.519-1.978,3.631
			c-1.398,1.944-3.134,3.532-5.571,4.102c-1.081,0.253-2.037-0.236-2.336-1.138c-0.099-0.296-0.16-0.593,0.073-0.854
			c0.239-0.266,0.516-0.124,0.766-0.024c1.036,0.416,2.002,0.204,2.843-0.433c1.17-0.883,2.22-1.884,2.633-3.38
			c0.435-1.577-0.513-2.923-2.147-2.96c-1.761-0.04-3.034,0.927-4.142,2.141c-0.624,0.684-1.166,1.441-1.66,2.232
			c-0.582,0.932-1.506,1.535-2.306,2.255c-0.196,0.178-0.454,0.42-0.723,0.199c-0.251-0.204-0.125-0.518-0.01-0.769
			c0.587-1.279,1.302-2.491,1.971-3.726c0.336-0.618,0.623-1.259,0.985-1.863c0.187-0.311,0.104-0.469-0.262-0.474
			c-0.401-0.005-0.803,0.004-1.204-0.002c-0.369-0.005-0.637,0.151-0.771,0.49c-0.838,2.112-2.785,3.243-4.255,4.794
			c-0.393,0.412-0.827,0.806-1.271,1.171c-0.293,0.242-0.644,0.706-1.013,0.402c-0.354-0.292,0.021-0.735,0.167-1.094
			c0.086-0.208,0.231-0.388,0.336-0.587c1.71-3.239,3.446-6.465,5.173-9.695c0.374-0.702,0.333-0.688-0.438-0.767
			c-0.967-0.099-1.547,0.201-2.006,1.127c-0.845,1.706-1.734,3.395-2.692,5.045c-0.448,0.773-0.513,0.768-1.017,0.013
			c-0.6-0.902-1.27-1.12-2.341-0.729c-1.313,0.477-2.379,1.328-3.195,2.428c-1.055,1.422-2.289,2.657-3.617,3.809
			c-0.304,0.263-0.671,0.775-1.066,0.443c-0.367-0.307,0.013-0.799,0.212-1.152c0.913-1.618,1.722-3.291,2.645-4.902
			c0.123-0.212,0.283-0.417,0.279-0.745c-0.561-0.102-1.131-0.042-1.698-0.038c-0.28,0.001-0.46,0.169-0.59,0.404
			c-0.134,0.242-0.28,0.475-0.428,0.709c-0.254,0.409-0.467,0.442-0.764,0.009c-0.864-1.263-1.529-1.432-2.919-0.782
			c-1.137,0.532-2.065,1.336-2.821,2.322c-1.169,1.529-2.665,2.716-4.079,3.988c-0.192,0.173-0.43,0.449-0.713,0.205
			c-0.258-0.223-0.078-0.516,0.032-0.763c0.46-1.033,1.06-1.994,1.563-3.005c0.458-0.921,0.354-1.12-0.645-1.302
			c-0.224-0.041-0.439-0.101-0.648-0.191c-0.755-0.324-0.827-0.568-0.362-1.246c0.198-0.289,0.438-0.55,0.571-0.883
			c0.242-0.607,0.116-0.931-0.478-1.215c-0.876-0.419-1.942-0.207-2.544,0.504c-0.599,0.708-0.66,1.606-0.033,2.423
			c0.615,0.803,0.592,0.926-0.187,1.679c-1.335,1.291-2.687,2.561-4.087,3.778c-0.2,0.176-0.416,0.455-0.709,0.233
			c-0.265-0.197-0.161-0.506-0.052-0.763c0.408-0.947,0.997-1.799,1.429-2.734c0.29-0.625,0.281-0.665-0.416-0.671
			c-1.079-0.01-2.159-0.013-3.238,0.001c-0.716,0.01-1.227,0.433-1.428,1.109c-0.092,0.311,0.04,0.421,0.315,0.447
			c0.4,0.038,0.804-0.019,1.203,0.044c0.376,0.059,0.606,0.292,0.325,0.616c-1.421,1.627-2.932,3.15-5.297,3.192
			c-1.665,0.03-2.626-1.167-2.328-2.824c0.193-1.071,0.58-2.078,1.104-3.03c1.239-2.249,2.771-4.241,4.999-5.613
			c0.472-0.291,0.957-0.556,1.494-0.703c0.529-0.145,1.054-0.181,1.465,0.278c0.4,0.447,0.353,0.979,0.196,1.495
			c-0.232,0.765-0.789,1.329-1.266,1.942c-0.163,0.21-0.637,0.336-0.38,0.694c0.247,0.344,0.682,0.44,1.093,0.283
			c0.504-0.192,0.885-0.552,1.196-0.996c0.365-0.521,0.64-1.071,0.781-1.696c0.461-2.049-0.858-3.476-2.947-3.19
			c-3.113,0.426-5.465,2.143-7.479,4.414c-1.139,1.284-2.062,2.718-2.696,4.324c-0.289,0.731-0.936,1.165-1.439,1.718
			c-0.474,0.523-1.063,0.918-1.575,1.398c-0.197,0.185-0.458,0.43-0.724,0.234c-0.299-0.216-0.14-0.552-0.014-0.823
			c0.584-1.252,1.277-2.447,1.936-3.659c0.336-0.617,0.625-1.259,0.989-1.861c0.209-0.346,0.129-0.508-0.278-0.508
			c-0.376,0-0.753,0.005-1.129,0c-0.397-0.007-0.688,0.154-0.83,0.523c-0.807,2.089-2.628,3.31-4.133,4.795
			c-0.496,0.488-0.979,1.011-1.564,1.408c-0.202,0.135-0.433,0.347-0.678,0.161c-0.251-0.189-0.095-0.466-0.016-0.694
			c0.215-0.621,0.608-1.152,0.909-1.731c0.671-1.29,1.352-2.577,2.055-3.851c0.318-0.575,0.302-0.599-0.356-0.613
			c-0.101-0.002-0.205,0.015-0.301-0.002c-0.944-0.169-1.5,0.265-1.865,1.109c-0.886,2.048-2.351,3.657-3.987,5.127
			c-0.282,0.254-0.581,0.48-0.918,0.654c-0.333,0.171-0.671,0.223-0.986-0.04c-0.335-0.279-0.273-0.634-0.12-0.964
			c0.542-1.159,1.168-2.276,1.787-3.395c0.435-0.786,0.778-1.614,1.346-2.435c-0.723-0.089-1.317-0.061-1.909-0.032
			c-0.383,0.018-0.543,0.315-0.696,0.612c-1.079,2.098-2.217,4.163-3.344,6.234c-0.143,0.262-0.247,0.554-0.535,0.709
			C12.159,69.415,12.012,69.388,11.882,69.272z"/>
		<path class="st0" d="M93.674,65.055c0.929-0.983,1.898-1.92,3.036-2.667c0.524-0.345,1.085-0.625,1.699-0.746
			c0.645-0.127,1.327-0.173,1.82,0.373c0.481,0.533,0.305,1.174,0.118,1.77c-0.316,1.002-0.906,1.875-1.377,2.805
			c-0.312,0.616-0.625,1.233-0.948,1.871c0.841-0.024,5.284-4.251,5.811-5.521c-0.58,0-1.134,0-1.727,0
			c0.146-0.652,0.414-1.028,1.071-0.895c0.899,0.182,1.417-0.191,1.767-1.029c0.344-0.823,0.843-1.581,1.25-2.379
			c0.193-0.38,0.449-0.557,0.889-0.517c0.398,0.036,0.803,0.007,1.203,0.007c0.892,0.001,0.892,0.001,0.446,0.808
			c-0.548,1-1.096,1.999-1.691,3.082c0.657,0,1.219,0,1.838,0c-0.134,0.626-0.358,1.04-1.033,0.901
			c-0.998-0.204-1.512,0.25-1.913,1.147c-0.566,1.269-1.29,2.467-1.934,3.7c-0.134,0.257-0.333,0.51-0.186,0.944
			c0.718-0.579,1.41-1.124,2.087-1.686c1.524-1.263,3.043-2.53,4.558-3.803c0.402-0.337,0.755-0.712,1.033-1.173
			c0.578-0.958,1.949-1.479,3.011-1.199c0.306,0.081,0.455,0.253,0.423,0.593c-0.021,0.239-0.099,0.472-0.257,0.601
			c-1.38,1.124-1.395,2.78-1.708,4.317c-0.072,0.351-0.255,0.695-0.134,1.1c1.379-0.555,2.421-1.577,3.592-2.405
			c0,0.401,0,0.804,0,1.204c-0.142,0.236-0.287,0.463-0.521,0.631c-0.589,0.427-1.134,0.925-1.777,1.267
			c-1.105,0.59-1.944,1.351-2.567,2.504c-1.075,1.989-3.17,2.154-5.229,1.642c-1.017-0.251-1.27-1.531-0.576-2.331
			c0.321-0.368,0.717-0.615,1.181-0.775c0.664-0.23,1.338-0.433,2.017-0.61c0.501-0.131,0.751-0.424,0.867-0.918
			c0.182-0.773,0.316-1.552,0.45-2.44c-1.867,1.633-3.646,3.208-5.404,4.807c-0.797,0.727-1.588,1.457-2.488,2.062
			c-0.604,0.407-1.265,0.456-1.946,0.397c-0.565-0.047-0.813-0.436-0.888-0.961c-0.076-0.524,0.11-0.994,0.343-1.442
			c0.296-0.574,0.597-1.148,0.887-1.694c-0.876,0.89-1.768,1.81-2.696,2.688c-0.751,0.713-1.567,1.342-2.665,1.425
			c-1.128,0.085-1.578-0.392-1.452-1.522c0.04-0.359,0.2-0.669,0.351-0.987c0.681-1.427,1.515-2.775,2.186-4.209
			c0.095-0.204,0.205-0.402,0.269-0.62c0.035-0.119,0.081-0.251-0.04-0.345c-0.115-0.089-0.241-0.032-0.353,0.021
			c-0.302,0.137-0.56,0.341-0.81,0.548c-2.223,1.84-4.078,4.001-5.578,6.462c-0.28,0.458-0.567,0.712-1.129,0.664
			c-0.523-0.046-1.054-0.003-1.58-0.013c-0.604-0.009-0.669-0.11-0.428-0.65c0.092-0.207,0.224-0.393,0.366-0.612
			c-0.803,0.414-1.526,0.939-2.397,1.109c-0.887,0.172-1.783,0.198-2.69,0.093c-1.576-0.183-2.504-0.996-2.816-2.547
			c-0.019-0.097-0.021-0.204-0.201-0.299c-0.587,0.597-1.24,1.168-1.905,1.724c-0.753,0.631-1.515,1.235-2.595,1.192
			c-0.992-0.038-1.459-0.582-1.253-1.57c0.109-0.521,0.371-0.982,0.636-1.439c0.274-0.479,0.477-0.996,0.771-1.466
			c0.027-0.043,0.063-0.079,0.159-0.14c-1.409,1.319-2.606,2.766-4.089,3.918c-0.536,0.416-1.128,0.642-1.796,0.688
			c-0.947,0.066-1.249-0.15-1.503-1.085c-0.305,0-0.47,0.254-0.68,0.405c-0.611,0.443-1.287,0.66-2.035,0.682
			c-1.486,0.045-2.225-0.621-2.351-2.115c-0.012-0.147,0.005-0.299-0.085-0.48c-0.283,0.003-0.411,0.242-0.573,0.405
			c-0.568,0.568-1.144,1.124-1.799,1.598c-0.507,0.367-1.065,0.548-1.678,0.591c-0.945,0.066-1.252-0.162-1.484-1.1
			c-0.301,0.011-0.469,0.256-0.677,0.411c-0.698,0.516-1.48,0.72-2.333,0.69c-1.207-0.04-1.895-0.672-2.048-1.874
			c-0.047-0.371,0.007-0.744-0.024-1.142c-0.757,0.803-1.523,1.553-2.379,2.21c-0.655,0.502-1.355,0.851-2.208,0.809
			c-0.938-0.046-1.319-0.496-1.185-1.415c0.062-0.427,0.204-0.824,0.398-1.208c0.735-1.457,1.554-2.867,2.331-4.301
			c0.129-0.239,0.292-0.463,0.301-0.866c-1.216,1.214-2.351,2.37-3.51,3.502c-1.183,1.156-2.272,2.411-3.593,3.426
			c-0.628,0.482-1.288,0.861-2.115,0.863c-0.985,0.001-1.216-0.166-1.469-1.143c-0.289,0.01-0.482,0.225-0.711,0.354
			c-1.496,0.843-3.11,0.999-4.736,0.626c-1.617-0.37-2.521-1.547-2.977-3.099c-0.076-0.258-0.047-0.544-0.238-0.834
			c-1.028,0.984-1.97,2.023-3.064,2.898c-0.747,0.596-1.468,1.211-2.517,1.2c-1.107-0.013-1.607-0.625-1.318-1.697
			c0.158-0.588,0.492-1.098,0.771-1.631c0.127-0.244,0.232-0.5,0.431-0.806c-0.934,0.924-1.784,1.814-2.675,2.658
			c-0.675,0.641-1.388,1.245-2.354,1.405c-0.574,0.093-1.193,0.216-1.6-0.322c-0.379-0.504-0.252-1.098-0.074-1.661
			c0.043-0.14,0.149-0.252,0.167-0.364c-0.793,0.76-1.623,1.511-2.605,2.079c-0.314,0.181-0.642,0.285-0.991,0.323
			c-1.314,0.142-1.878-0.354-1.868-1.681c0.005-0.531-0.162-1.117,0.339-1.547c1.273-2.368,2.555-4.732,3.81-7.111
			c0.224-0.424,0.464-0.633,0.975-0.586c0.622,0.057,1.252,0.013,1.991,0.013c-0.332,0.639-0.628,1.223-0.936,1.8
			c-0.69,1.299-1.385,2.595-2.078,3.892c-0.082,0.151-0.202,0.297-0.235,0.462c-0.055,0.272-0.25,0.569,0.079,0.821
			c0.28,0.215,0.524,0.073,0.764-0.053c0.72-0.377,1.276-0.961,1.85-1.518c1.417-1.374,2.491-2.994,3.309-4.779
			c0.233-0.51,0.536-0.687,1.085-0.638c0.598,0.054,1.204,0.012,1.895,0.012c-1.163,2.385-2.547,4.606-3.693,7.118
			c0.504-0.126,0.757-0.359,0.995-0.58c1.397-1.298,2.794-2.597,4.167-3.92c0.603-0.582,0.86-1.396,1.243-2.118
			c0.208-0.394,0.436-0.529,0.863-0.507c0.65,0.034,1.303,0.009,2.05,0.009c-1.152,2.383-2.55,4.58-3.682,7.141
			c0.754-0.274,1.071-0.735,1.473-1.073c1.17-0.979,2.099-2.09,2.813-3.506c1.749-3.47,4.351-6.137,8.139-7.434
			c0.711-0.244,1.448-0.388,2.201-0.396c1.85-0.019,3.007,1.293,2.719,3.116c-0.168,1.063-0.639,1.994-1.446,2.727
			c-0.894,0.812-1.563,0.757-2.429-0.187c0.813-0.642,1.497-1.397,1.925-2.35c0.219-0.488,0.353-1.016-0.032-1.479
			c-0.409-0.491-0.941-0.366-1.452-0.176c-1.944,0.725-3.403,2.084-4.642,3.683c-1.211,1.563-2.23,3.243-2.622,5.227
			c-0.424,2.155,0.852,3.331,2.992,2.75c1.572-0.427,3.413-1.804,4.409-3.348c-0.62,0-1.18,0.011-1.74-0.005
			c-0.473-0.011-0.625-0.217-0.396-0.676c0.411-0.826,0.858-1.447,1.985-1.305c1.063,0.133,2.156,0.044,3.234,0.007
			c0.602-0.021,0.846,0.032,0.452,0.689c-0.549,0.917-1.016,1.884-1.508,2.834c-0.122,0.238-0.291,0.475-0.163,0.907
			c1.904-1.582,3.621-3.269,5.359-4.943c-0.234-0.283-0.478-0.531-0.67-0.816c-0.639-0.947-0.472-2.117,0.385-2.825
			c0.833-0.688,2.238-0.694,2.991-0.017c0.293,0.265,0.357,0.563,0.23,0.947c-0.17,0.515-0.494,0.927-0.83,1.323
			c-0.345,0.407-0.205,0.573,0.215,0.76c0.421,0.187,0.866,0.224,1.303,0.308c0.601,0.115,0.727,0.457,0.514,0.981
			c-0.405,0.995-1.028,1.876-1.503,2.832c-0.212,0.427-0.564,0.821-0.464,1.511c1.649-1.5,3.307-2.821,4.632-4.505
			c0.748-0.952,1.641-1.755,2.743-2.29c1.767-0.857,2.636-0.557,3.487,1.184c0.529-1.868,1.969-1.757,3.489-1.529
			c-1.121,2.321-2.525,4.535-3.638,7.037c0.509-0.097,0.742-0.36,0.99-0.58c1.335-1.177,2.603-2.411,3.662-3.858
			c0.699-0.954,1.608-1.718,2.685-2.246c1.765-0.866,2.62-0.581,3.531,1.193c1.103-2.067,2.206-4.103,3.27-6.158
			c0.269-0.52,0.551-0.815,1.187-0.74c0.569,0.067,1.151,0.014,1.865,0.014c-2.192,4.124-4.343,8.169-6.544,12.313
			c0.483,0.041,0.67-0.193,0.846-0.356c1.567-1.446,3.132-2.896,4.671-4.373c0.526-0.506,0.751-1.226,1.089-1.861
			c0.173-0.326,0.354-0.48,0.741-0.46c0.675,0.034,1.354,0.009,2.144,0.009c-1.161,2.389-2.543,4.601-3.502,7.031
			c1.059-0.8,2.162-1.508,2.892-2.609c0.929-1.408,1.912-2.764,3.385-3.665c1.029-0.631,2.119-1.006,3.345-0.618
			c1.192,0.376,1.95,1.473,1.646,2.66c-0.563,2.193-1.89,3.752-4.095,4.48c-0.689,0.227-1.355,0.126-1.951-0.218
			c-0.472-0.273-0.462,0.058-0.472,0.304c-0.036,0.899,0.92,1.641,1.938,1.49c0.69-0.102,1.358-0.295,1.966-0.669
			c1.834-1.129,3.449-2.458,4.395-4.474c0.528-1.125,1.17-2.197,1.742-3.302c0.156-0.302,0.344-0.432,0.694-0.418
			c0.695,0.029,1.392,0.009,2.165,0.009c-0.581,1.146-1.129,2.224-1.679,3.301C93.445,65.064,93.459,65.156,93.674,65.055z"/>
		<path class="st4" d="M12.306,69.272c-0.178,0.545-0.319,1.09-0.282,1.679c0.069,1.104,0.921,1.726,1.979,1.385
			c1.206-0.387,2.074-1.275,2.992-2.081c0.292-0.257,0.541-0.559,0.854-0.805c-0.121,0.598-0.521,1.068-0.557,1.681
			c-0.06,1.01,0.483,1.498,1.471,1.259c0.955-0.23,1.706-0.818,2.396-1.477c0.945-0.899,1.864-1.826,2.799-2.736
			c0.097-0.096,0.17-0.254,0.421-0.198c-0.345,0.642-0.691,1.26-1.01,1.891c-0.179,0.356-0.364,0.722-0.455,1.104
			c-0.244,1.02,0.42,1.661,1.449,1.423c0.8-0.184,1.47-0.621,2.06-1.171c1.154-1.073,2.29-2.166,3.493-3.308
			c0.123,2.175,1.029,3.774,3.193,4.347c2.012,0.532,3.764-0.226,5.417-1.326c0.041,1.348,0.74,1.815,2.004,1.32
			c0.923-0.362,1.657-1.022,2.352-1.705c1.913-1.886,3.805-3.79,5.711-5.682c0.17-0.17,0.288-0.416,0.583-0.461
			c0.193,0.457-0.038,0.813-0.239,1.18c-0.778,1.42-1.554,2.843-2.326,4.266c-0.202,0.373-0.355,0.762-0.441,1.184
			c-0.193,0.956,0.387,1.561,1.359,1.372c0.727-0.142,1.326-0.54,1.904-0.985c0.936-0.719,1.7-1.621,2.687-2.507
			c-0.206,0.602-0.187,1.087-0.168,1.569c0.052,1.338,1.154,2.172,2.464,1.904c1.011-0.205,1.785-0.827,2.59-1.466
			c0.116,1.463,0.805,1.848,2.144,1.25c0.885-0.395,1.583-1.043,2.256-1.72c0.36-0.363,0.738-0.709,1.236-1.185
			c0,0.538-0.012,0.879,0.002,1.219c0.056,1.34,1.156,2.167,2.469,1.901c1.012-0.205,1.781-0.835,2.59-1.466
			c0.106,1.436,0.773,1.833,2.077,1.282c0.674-0.286,1.272-0.71,1.777-1.234c1.162-1.214,2.303-2.451,3.45-3.68
			c0.08,0.068,0.158,0.136,0.236,0.204c-0.411,0.771-0.832,1.54-1.232,2.318c-0.181,0.353-0.37,0.714-0.473,1.094
			c-0.285,1.052,0.387,1.731,1.446,1.481c0.798-0.188,1.461-0.634,2.058-1.176c0.757-0.686,1.498-1.389,2.278-2.115
			c0.102,0.496,0.145,0.946,0.288,1.36c0.432,1.238,1.655,1.946,3.391,1.969c1.691,0.023,3.143-0.658,4.66-1.756
			c-0.336,0.671-0.58,1.159-0.879,1.758c0.857,0,1.62-0.008,2.382,0.003c0.413,0.006,0.438-0.363,0.582-0.594
			c1.609-2.596,3.55-4.902,5.968-6.785c0.357-0.279,0.819-0.824,1.2-0.508c0.411,0.34-0.026,0.914-0.241,1.333
			c-0.672,1.306-1.386,2.591-2.066,3.894c-0.229,0.437-0.47,0.869-0.5,1.391c-0.056,0.96,0.483,1.452,1.431,1.232
			c0.982-0.227,1.765-0.816,2.459-1.507c1.01-1.006,1.977-2.052,2.962-3.082c0.071,0.057,0.144,0.115,0.215,0.173
			c-0.306,0.593-0.62,1.183-0.916,1.781c-0.188,0.379-0.402,0.757-0.511,1.158c-0.284,1.052,0.396,1.723,1.459,1.468
			c0.826-0.198,1.497-0.671,2.115-1.227c1.194-1.074,2.376-2.159,3.575-3.228c1.176-1.049,2.365-2.083,3.673-3.232
			c-0.238,1.241-0.438,2.343-0.664,3.441c-0.063,0.302-0.24,0.468-0.605,0.549c-0.846,0.19-1.676,0.467-2.494,0.759
			c-0.523,0.187-1.018,0.487-1.208,1.053c-0.273,0.808,0.166,1.509,1.052,1.769c2.038,0.594,4.108-0.233,5.059-2.18
			c0.389-0.794,0.907-1.302,1.651-1.691c1.11-0.582,2.061-1.398,3.06-2.144c0,1.985-0.009,3.968,0.009,5.951
			c0.005,0.324-0.061,0.443-0.387,0.379c-0.097-0.018-0.199-0.003-0.299-0.003c-34.395,0-68.788-0.001-103.181,0.014
			c-0.564,0-0.728-0.122-0.692-0.691c0.055-0.875,0.015-1.757,0.015-2.636C12.023,69.272,12.165,69.272,12.306,69.272z"/>
		<path class="st0" d="M32.066,55.866c0.846,0.607,1.008,1.255,0.448,2.14c-0.523,0.828-1.25,1.418-2.28,1.482
			c-1.248,0.078-1.756-0.742-1.194-1.889c0.443-0.904,1.243-1.366,2.123-1.733C31.464,55.866,31.766,55.866,32.066,55.866z"/>
		<path class="st0" d="M82.678,55.866c0.846,0.607,1.007,1.255,0.448,2.14c-0.523,0.828-1.251,1.418-2.281,1.482
			c-1.248,0.078-1.756-0.742-1.194-1.889c0.443-0.904,1.243-1.366,2.123-1.733C82.074,55.866,82.377,55.866,82.678,55.866z"/>
		<path class="st1" d="M93.674,65.055c-0.12,0.149-0.239,0.299-0.427,0.532c-0.034-0.364,0.098-0.537,0.269-0.696
			C93.569,64.946,93.621,65.001,93.674,65.055z"/>
		<path class="st4" d="M60.083,64.218c0.041,0.221-0.062,0.454-0.145,0.687c-0.649,1.828-1.702,3.367-3.274,4.522
			c-0.343,0.252-0.766,0.522-1.162,0.23c-0.395-0.291-0.253-0.749-0.119-1.169c0.627-1.961,1.748-3.567,3.446-4.735
			C59.575,63.241,60.066,63.442,60.083,64.218z"/>
		<path class="st4" d="M70.778,64.321c-0.157,1.118-0.795,2.151-1.498,3.15c-0.578,0.819-1.243,1.562-2.119,2.081
			c-0.311,0.185-0.654,0.332-0.979,0.106c-0.311-0.214-0.285-0.596-0.195-0.898c0.628-2.089,1.761-3.836,3.615-5.041
			C70.321,63.251,70.765,63.464,70.778,64.321z"/>
		<path class="st3" d="M83.645,67.131c-0.188-0.081-0.416-0.115-0.534-0.247c-0.161-0.181,0.065-0.35,0.158-0.494
			c0.667-1.033,1.441-1.974,2.488-2.651c0.269-0.174,0.628-0.385,0.893-0.147c0.258,0.231,0.097,0.594-0.036,0.899
			c-0.456,1.046-1.196,1.827-2.193,2.364C84.184,66.98,83.91,67.039,83.645,67.131z"/>
		<path class="st2" d="M109.02,70.173c-0.396,0.527-0.646,0.921-1.085,1.144c-0.181,0.091-0.327,0.08-0.461-0.081
			c-0.167-0.202-0.001-0.328,0.118-0.435C107.947,70.488,108.395,70.37,109.02,70.173z"/>
	</g>
</g>
</svg>
